# xmcd
#
# Track frame offsets: 
#        150
#        20135
#        42522
#        59616
#        73941
#        93730
#        114717
#        137132
#        157231
#        174633
#        192468
#        212737
#        234444
#
# Disc length: 3400 seconds
#
# Revision: 2
# Processed by: cddbd v1.5.2PL0 Copyright (c) Steve Scherf et al.
# Submitted via: ExactAudioCopy v0.95a5
#
DISCID=d20d460d
DTITLE=Joel Johnson Band - City Music
DYEAR=1994
DGENRE=Blues
TTITLE0=Harp Attack
TTITLE1=Make Your Blues Go Away
TTITLE2=Got Love (If You Want It)
TTITLE3=Wildflower
TTITLE4=The Power of a Woman
TTITLE5=Politicians
TTITLE6=Tough Times
TTITLE7=My Baby's Late
TTITLE8=Honest I Do
TTITLE9=Old Blues Man
TTITLE10=Minneapolis Girls
TTITLE11=Slow Burns
TTITLE12=Paint My Mailbox Blue
EXTD=
EXTT0=
EXTT1=
EXTT2=
EXTT3=
EXTT4=
EXTT5=
EXTT6=
EXTT7=
EXTT8=
EXTT9=
EXTT10=
EXTT11=
EXTT12=
PLAYORDER=
